<svg width="20" height="20" viewBox="0 0 20 20" fill="none" xmlns="http://www.w3.org/2000/svg">
<path opacity="0.5" d="M17.5 13.3316V8.33159C17.5 5.97492 17.5 4.79659 16.7675 4.06409C16.1275 3.42409 15.1458 3.34325 13.3333 3.33325H6.66667C4.85417 3.34325 3.8725 3.42409 3.2325 4.06409C2.5 4.79659 2.5 5.97492 2.5 8.33159V13.3316C2.5 15.6891 2.5 16.8674 3.2325 17.5999C3.96417 18.3316 5.14333 18.3316 7.5 18.3316H12.5C14.8567 18.3316 16.0358 18.3316 16.7675 17.5999C17.5 16.8666 17.5 15.6891 17.5 13.3316Z" fill="#5B5B5B"/>
<path d="M6.66663 2.91675C6.66663 2.58523 6.79832 2.26729 7.03274 2.03286C7.26716 1.79844 7.58511 1.66675 7.91663 1.66675H12.0833C12.4148 1.66675 12.7328 1.79844 12.9672 2.03286C13.2016 2.26729 13.3333 2.58523 13.3333 2.91675V3.75008C13.3333 4.0816 13.2016 4.39954 12.9672 4.63397C12.7328 4.86839 12.4148 5.00008 12.0833 5.00008H7.91663C7.58511 5.00008 7.26716 4.86839 7.03274 4.63397C6.79832 4.39954 6.66663 4.0816 6.66663 3.75008V2.91675Z" fill="#5B5B5B"/>
<path fill-rule="evenodd" clip-rule="evenodd" d="M5.20837 8.75C5.20837 8.58424 5.27422 8.42527 5.39143 8.30806C5.50864 8.19085 5.66761 8.125 5.83337 8.125H14.1667C14.3325 8.125 14.4914 8.19085 14.6086 8.30806C14.7259 8.42527 14.7917 8.58424 14.7917 8.75C14.7917 8.91576 14.7259 9.07473 14.6086 9.19194C14.4914 9.30915 14.3325 9.375 14.1667 9.375H5.83337C5.66761 9.375 5.50864 9.30915 5.39143 9.19194C5.27422 9.07473 5.20837 8.91576 5.20837 8.75ZM6.04171 11.6667C6.04171 11.5009 6.10756 11.3419 6.22477 11.2247C6.34198 11.1075 6.50095 11.0417 6.66671 11.0417H13.3334C13.4991 11.0417 13.6581 11.1075 13.7753 11.2247C13.8925 11.3419 13.9584 11.5009 13.9584 11.6667C13.9584 11.8324 13.8925 11.9914 13.7753 12.1086C13.6581 12.2258 13.4991 12.2917 13.3334 12.2917H6.66671C6.50095 12.2917 6.34198 12.2258 6.22477 12.1086C6.10756 11.9914 6.04171 11.8324 6.04171 11.6667ZM6.87504 14.5833C6.87504 14.4176 6.94089 14.2586 7.0581 14.1414C7.17531 14.0242 7.33428 13.9583 7.50004 13.9583H12.5C12.6658 13.9583 12.8248 14.0242 12.942 14.1414C13.0592 14.2586 13.125 14.4176 13.125 14.5833C13.125 14.7491 13.0592 14.9081 12.942 15.0253C12.8248 15.1425 12.6658 15.2083 12.5 15.2083H7.50004C7.33428 15.2083 7.17531 15.1425 7.0581 15.0253C6.94089 14.9081 6.87504 14.7491 6.87504 14.5833Z" fill="#5B5B5B"/>
</svg>
