<svg width="128" height="128" viewBox="0 0 128 128" fill="none" xmlns="http://www.w3.org/2000/svg">
<path opacity="0.5" fill-rule="evenodd" clip-rule="evenodd" d="M74.6665 117.333H53.3332C33.2212 117.333 23.1625 117.333 16.9172 111.083C10.6665 104.837 10.6665 94.7787 10.6665 74.6667V53.3333C10.6665 33.2213 10.6665 23.1627 16.9172 16.9173C23.1625 10.6667 33.2745 10.6667 53.4932 10.6667C56.7252 10.6667 59.3118 10.6667 61.4932 10.7573C61.4238 11.184 61.3865 11.616 61.3865 12.0587L61.3332 27.1733C61.3332 33.024 61.3332 38.1973 61.8932 42.3627C62.5012 46.88 63.8932 51.3973 67.5838 55.088C71.2638 58.768 75.7865 60.1653 80.3038 60.7733C84.4692 61.3333 89.6425 61.3333 95.4932 61.3333H117.104C117.333 64.1813 117.333 67.68 117.333 72.336V74.6667C117.333 94.7787 117.333 104.837 111.082 111.083C104.837 117.333 94.7785 117.333 74.6665 117.333Z" fill="#151515"/>
<path d="M56.3198 82.656C56.6936 82.268 56.9852 81.8086 57.177 81.3052C57.3689 80.8018 57.4571 80.2648 57.4363 79.7264C57.4155 79.1881 57.2862 78.6595 57.0561 78.1724C56.826 77.6853 56.4999 77.2497 56.0974 76.8917C55.6948 76.5337 55.2241 76.2607 54.7134 76.0891C54.2027 75.9174 53.6627 75.8508 53.1256 75.893C52.5885 75.9353 52.0655 76.0856 51.588 76.3349C51.1104 76.5842 50.6881 76.9275 50.3465 77.344L39.1092 89.984L34.9918 85.344C34.2874 84.5505 33.2966 84.0693 32.2374 84.0063C31.1782 83.9432 30.1374 84.3036 29.3438 85.008C28.5503 85.7124 28.0691 86.7032 28.0061 87.7624C27.9431 88.8216 28.3034 89.8625 29.0078 90.656L36.1225 98.656C36.4977 99.0772 36.9578 99.4143 37.4726 99.6451C37.9873 99.8759 38.545 99.9952 39.1092 99.9952C39.6733 99.9952 40.231 99.8759 40.7457 99.6451C41.2605 99.4143 41.7206 99.0772 42.0958 98.656L56.3198 82.656ZM61.3865 12.0533L61.3332 27.1733C61.3332 33.024 61.3332 38.192 61.8932 42.3627C62.5012 46.88 63.8932 51.3973 67.5838 55.0827C71.2638 58.768 75.7865 60.1653 80.3038 60.7733C84.4692 61.3333 89.6425 61.3333 95.4932 61.3333H117.104C117.173 62.16 117.221 63.0453 117.253 64H117.333C117.333 62.5707 117.333 61.856 117.28 61.0133C116.869 55.9453 115.104 51.0807 112.17 46.928C111.669 46.2453 111.328 45.84 110.65 45.024C106.421 39.968 100.853 33.664 95.9998 29.3333C91.6798 25.472 85.7545 21.2533 80.5865 17.808C76.1492 14.8427 73.9305 13.36 70.8852 12.2613C69.9993 11.9443 69.0987 11.6702 68.1865 11.44C66.1385 10.9333 64.1438 10.7573 61.3332 10.6933L61.3865 12.0533Z" fill="#151515"/>
</svg>
