<svg width="40" height="40" viewBox="0 0 40 40" fill="none" xmlns="http://www.w3.org/2000/svg">
<path opacity="0.5" d="M31.25 14.9999V16.1733C31.25 17.5816 31.65 18.9583 32.4033 20.1299L34.25 23.0016C35.935 25.6249 34.6483 29.1899 31.7167 30.0183C24.0562 32.1877 15.9438 32.1877 8.28331 30.0183C5.35165 29.1899 4.06498 25.6249 5.74998 23.0016L7.59665 20.1299C8.352 18.9486 8.75284 17.5754 8.75165 16.1733V14.9999C8.75165 8.55659 13.7883 3.33325 20 3.33325C26.2116 3.33325 31.25 8.55659 31.25 14.9999Z" fill="#234596"/>
<path d="M12.0717 30.9083C12.6162 32.5818 13.6765 34.0401 15.1005 35.0742C16.5245 36.1084 18.2393 36.6653 19.9992 36.6653C21.7591 36.6653 23.4738 36.1084 24.8978 35.0742C26.3219 34.0401 27.3821 32.5818 27.9267 30.9083C22.685 31.8917 17.315 31.8917 12.0717 30.9083Z" fill="#234596"/>
</svg>
