<svg width="20" height="20" viewBox="0 0 20 20" fill="none" xmlns="http://www.w3.org/2000/svg">
<path d="M2.29173 5.139C2.29173 4.75567 2.57923 4.444 2.93423 4.444H5.15506C5.59589 4.4315 5.98506 4.129 6.13506 3.68067L6.16006 3.6015L6.25589 3.2915C6.31423 3.1015 6.36506 2.93567 6.43673 2.78734C6.71839 2.20234 7.24006 1.7965 7.84256 1.69234C7.99589 1.6665 8.15673 1.6665 8.34256 1.6665H11.2409C11.4267 1.6665 11.5884 1.6665 11.7409 1.69234C12.3434 1.7965 12.8659 2.20234 13.1467 2.78734C13.2184 2.93567 13.2692 3.1015 13.3276 3.2915L13.4234 3.6015L13.4484 3.68067C13.5984 4.129 14.0651 4.43234 14.5067 4.444H16.6484C17.0042 4.444 17.2917 4.75484 17.2917 5.139C17.2917 5.52317 17.0042 5.83317 16.6492 5.83317H2.93339C2.57839 5.83317 2.29173 5.52234 2.29173 5.139Z" fill="#5B5B5B"/>
<path opacity="0.5" d="M9.67256 18.3333H10.3284C12.5842 18.3333 13.7117 18.3333 14.4459 17.6142C15.1792 16.8942 15.2542 15.7142 15.4042 13.355L15.6209 9.95418C15.7026 8.67335 15.7434 8.03335 15.3751 7.62751C15.0067 7.22168 14.3859 7.22168 13.1426 7.22168H6.85839C5.61589 7.22168 4.99422 7.22168 4.62589 7.62751C4.25756 8.03335 4.29922 8.67335 4.38006 9.95418L4.59672 13.3542C4.74672 15.715 4.82172 16.8942 5.55506 17.6142C6.28839 18.3342 7.41672 18.3333 9.67256 18.3333Z" fill="#5B5B5B"/>
</svg>
