<svg width="64" height="64" viewBox="0 0 64 64" fill="none" xmlns="http://www.w3.org/2000/svg">
<path opacity="0.5" d="M17.3335 48.0007V47.7607C17.3335 45.454 17.3335 43.3367 17.5655 41.6167C17.8188 39.7207 18.4188 37.7153 20.0668 36.07C21.7148 34.4193 23.7202 33.8193 25.6135 33.5633C27.3362 33.334 29.4535 33.334 31.7628 33.334H32.2375C34.5468 33.334 36.6642 33.334 38.3842 33.566C40.2802 33.8193 42.2855 34.4193 43.9308 36.0673C45.5815 37.7153 46.1815 39.7206 46.4375 41.614C46.6642 43.3127 46.6668 45.39 46.6668 47.6593C53.5282 46.1926 58.6668 40.1607 58.6668 32.9393C58.6668 26.3527 54.3815 20.7473 48.4135 18.7073C47.5655 11.1847 41.1068 5.33398 33.2695 5.33398C24.8535 5.33398 18.0322 12.0753 18.0322 20.3927C18.0322 22.2327 18.3655 23.9927 18.9762 25.6247C18.2468 25.4836 17.5057 25.4122 16.7628 25.4113C10.4508 25.414 5.3335 30.47 5.3335 36.7073C5.3335 42.9447 10.4508 48.0007 16.7628 48.0007H17.3335Z" fill="#234596"/>
<path fill-rule="evenodd" clip-rule="evenodd" d="M32.0002 37.334C26.9708 37.334 24.4588 37.334 22.8962 38.8967C21.3335 40.4593 21.3335 42.9713 21.3335 48.0007C21.3335 53.03 21.3335 55.542 22.8962 57.1047C24.4588 58.6673 26.9708 58.6673 32.0002 58.6673C37.0295 58.6673 39.5415 58.6673 41.1042 57.1047C42.6668 55.542 42.6668 53.03 42.6668 48.0007C42.6668 42.9713 42.6668 40.4593 41.1042 38.8967C39.5415 37.334 37.0295 37.334 32.0002 37.334ZM36.8135 45.558L33.2562 42.0033C32.9227 41.6708 32.4711 41.4841 32.0002 41.4841C31.5293 41.4841 31.0776 41.6708 30.7442 42.0033L27.1868 45.558C27.015 45.7216 26.8777 45.9179 26.7829 46.1354C26.6882 46.3529 26.6379 46.5871 26.635 46.8243C26.6321 47.0615 26.6767 47.2969 26.7661 47.5166C26.8555 47.7363 26.988 47.9359 27.1558 48.1037C27.3235 48.2714 27.5231 48.4039 27.7429 48.4934C27.9626 48.5828 28.198 48.6274 28.4352 48.6245C28.6724 48.6216 28.9066 48.5713 29.1241 48.4765C29.3416 48.3818 29.5379 48.2444 29.7015 48.0727L30.2215 47.5527V52.742C30.2215 53.2137 30.4089 53.6661 30.7425 53.9997C31.076 54.3333 31.5284 54.5207 32.0002 54.5207C32.4719 54.5207 32.9243 54.3333 33.2579 53.9997C33.5914 53.6661 33.7788 53.2137 33.7788 52.742V47.5527L34.2988 48.0727C34.635 48.3928 35.083 48.5688 35.5472 48.5632C36.0114 48.5575 36.4549 48.3706 36.7832 48.0424C37.1115 47.7141 37.2984 47.2705 37.304 46.8063C37.3097 46.3421 37.1336 45.8941 36.8135 45.558Z" fill="#234596"/>
</svg>
