<svg width="32" height="32" viewBox="0 0 32 32" fill="none" xmlns="http://www.w3.org/2000/svg">
<path opacity="0.5" fill-rule="evenodd" clip-rule="evenodd" d="M25.0238 12.357C25.6489 11.7319 26.0001 10.884 26.0001 9.99999C26.0001 9.11593 25.6489 8.26809 25.0238 7.64297C24.3986 7.01785 23.5508 6.66666 22.6667 6.66666C21.7827 6.66666 20.9348 7.01785 20.3097 7.64297C19.6846 8.26809 19.3334 9.11593 19.3334 9.99999C19.3334 10.884 19.6846 11.7319 20.3097 12.357C20.9348 12.9821 21.7827 13.3333 22.6667 13.3333C23.5508 13.3333 24.3986 12.9821 25.0238 12.357ZM6.97637 12.357C6.35125 11.7319 6.00006 10.884 6.00006 9.99999C6.00006 9.11593 6.35125 8.26809 6.97637 7.64297C7.60149 7.01785 8.44934 6.66666 9.33339 6.66666C10.2174 6.66666 11.0653 7.01785 11.6904 7.64297C12.3155 8.26809 12.6667 9.11593 12.6667 9.99999C12.6667 10.884 12.3155 11.7319 11.6904 12.357C11.0653 12.9821 10.2174 13.3333 9.33339 13.3333C8.44934 13.3333 7.60149 12.9821 6.97637 12.357ZM24.0001 25.3333C26.9467 25.3333 29.3334 23.84 29.3334 22C29.3334 20.16 26.9467 18.6667 24.0001 18.6667C21.0534 18.6667 18.6667 20.16 18.6667 22C18.6667 23.84 21.0534 25.3333 24.0001 25.3333ZM8.00008 25.3333C5.05341 25.3333 2.66675 23.84 2.66675 22C2.66675 20.16 5.05341 18.6667 8.00008 18.6667C10.9467 18.6667 13.3334 20.16 13.3334 22C13.3334 23.84 10.9467 25.3333 8.00008 25.3333Z" fill="#151515"/>
<path fill-rule="evenodd" clip-rule="evenodd" d="M20.3114 11.7859C20.5459 11.2197 20.6666 10.6128 20.6666 10C20.6666 8.76233 20.175 7.57535 19.2998 6.70018C18.4246 5.82501 17.2377 5.33334 16 5.33334C14.7623 5.33334 13.5753 5.82501 12.7001 6.70018C11.825 7.57535 11.3333 8.76233 11.3333 10C11.3333 10.6128 11.454 11.2197 11.6885 11.7859C11.9231 12.3521 12.2668 12.8665 12.7001 13.2998C13.1335 13.7332 13.6479 14.0769 14.2141 14.3114C14.7803 14.546 15.3871 14.6667 16 14.6667C16.6128 14.6667 17.2196 14.546 17.7858 14.3114C18.352 14.0769 18.8665 13.7332 19.2998 13.2998C19.7332 12.8665 20.0769 12.3521 20.3114 11.7859ZM16 26.6667C20.4187 26.6667 24 24.5773 24 22C24 19.4227 20.4187 17.3333 16 17.3333C11.5813 17.3333 8 19.4227 8 22C8 24.5773 11.5813 26.6667 16 26.6667Z" fill="#151515"/>
</svg>
