<svg width="20" height="20" viewBox="0 0 20 20" fill="none" xmlns="http://www.w3.org/2000/svg">
<path opacity="0.5" d="M1.66663 9.99967C1.66663 11.3663 2.02079 11.8255 2.72913 12.7463C4.14329 14.583 6.51496 16.6663 9.99996 16.6663C13.485 16.6663 15.8566 14.583 17.2708 12.7463C17.9791 11.8263 18.3333 11.3655 18.3333 9.99967C18.3333 8.63301 17.9791 8.17384 17.2708 7.25301C15.8566 5.41634 13.485 3.33301 9.99996 3.33301C6.51496 3.33301 4.14329 5.41634 2.72913 7.25301C2.02079 8.17467 1.66663 8.63384 1.66663 9.99967Z" fill="#5B5B5B"/>
<path fill-rule="evenodd" clip-rule="evenodd" d="M6.875 10C6.875 9.1712 7.20424 8.37634 7.79029 7.79029C8.37634 7.20424 9.1712 6.875 10 6.875C10.8288 6.875 11.6237 7.20424 12.2097 7.79029C12.7958 8.37634 13.125 9.1712 13.125 10C13.125 10.8288 12.7958 11.6237 12.2097 12.2097C11.6237 12.7958 10.8288 13.125 10 13.125C9.1712 13.125 8.37634 12.7958 7.79029 12.2097C7.20424 11.6237 6.875 10.8288 6.875 10ZM8.125 10C8.125 9.50272 8.32254 9.02581 8.67417 8.67417C9.02581 8.32254 9.50272 8.125 10 8.125C10.4973 8.125 10.9742 8.32254 11.3258 8.67417C11.6775 9.02581 11.875 9.50272 11.875 10C11.875 10.4973 11.6775 10.9742 11.3258 11.3258C10.9742 11.6775 10.4973 11.875 10 11.875C9.50272 11.875 9.02581 11.6775 8.67417 11.3258C8.32254 10.9742 8.125 10.4973 8.125 10Z" fill="#5B5B5B"/>
</svg>
