<svg width="32" height="32" viewBox="0 0 32 32" fill="none" xmlns="http://www.w3.org/2000/svg">
<path opacity="0.5" d="M29.3334 16.0003C29.3334 23.3643 23.364 29.3337 16 29.3337C8.63602 29.3337 2.66669 23.3643 2.66669 16.0003C2.66669 8.63633 8.63602 2.66699 16 2.66699C23.364 2.66699 29.3334 8.63633 29.3334 16.0003Z" fill="white"/>
<path d="M11.96 11.9599C12.1475 11.7726 12.4017 11.6674 12.6667 11.6674C12.9317 11.6674 13.1858 11.7726 13.3733 11.9599L16 14.5865L18.6267 11.9599C18.7182 11.8616 18.8286 11.7828 18.9513 11.7282C19.0739 11.6735 19.2064 11.6441 19.3406 11.6418C19.4749 11.6394 19.6083 11.6641 19.7328 11.7144C19.8573 11.7647 19.9704 11.8395 20.0654 11.9345C20.1603 12.0295 20.2352 12.1426 20.2855 12.2671C20.3358 12.3916 20.3605 12.525 20.3581 12.6592C20.3557 12.7935 20.3264 12.9259 20.2717 13.0486C20.217 13.1713 20.1382 13.2817 20.04 13.3732L17.4133 15.9999L20.04 18.6265C20.2166 18.8161 20.3128 19.0668 20.3082 19.3259C20.3037 19.585 20.1987 19.8322 20.0155 20.0154C19.8323 20.1986 19.5851 20.3035 19.326 20.3081C19.067 20.3127 18.8162 20.2165 18.6267 20.0399L16 17.4132L13.3733 20.0399C13.1838 20.2165 12.933 20.3127 12.674 20.3081C12.4149 20.3035 12.1677 20.1986 11.9845 20.0154C11.8013 19.8322 11.6963 19.585 11.6918 19.3259C11.6872 19.0668 11.7834 18.8161 11.96 18.6265L14.5867 15.9999L11.96 13.3732C11.7727 13.1857 11.6675 12.9315 11.6675 12.6665C11.6675 12.4015 11.7727 12.1474 11.96 11.9599Z" fill="white"/>
</svg>
