<svg width="32" height="32" viewBox="0 0 32 32" fill="none" xmlns="http://www.w3.org/2000/svg">
<g id="Close">
<path id="Vector" opacity="0.5" d="M29.3334 16C29.3334 23.364 23.364 29.3334 16 29.3334C8.63602 29.3334 2.66669 23.364 2.66669 16C2.66669 8.63602 8.63602 2.66669 16 2.66669C23.364 2.66669 29.3334 8.63602 29.3334 16Z" fill="#151515"/>
<path id="Vector_2" d="M11.96 11.96C12.1475 11.7727 12.4017 11.6675 12.6667 11.6675C12.9317 11.6675 13.1858 11.7727 13.3733 11.96L16 14.5867L18.6267 11.96C18.7182 11.8618 18.8286 11.7829 18.9513 11.7283C19.0739 11.6736 19.2064 11.6442 19.3406 11.6419C19.4749 11.6395 19.6083 11.6642 19.7328 11.7145C19.8573 11.7648 19.9704 11.8397 20.0654 11.9346C20.1603 12.0296 20.2352 12.1427 20.2855 12.2672C20.3358 12.3917 20.3605 12.5251 20.3581 12.6594C20.3557 12.7936 20.3264 12.9261 20.2717 13.0487C20.217 13.1714 20.1382 13.2818 20.04 13.3733L17.4133 16L20.04 18.6267C20.2166 18.8162 20.3128 19.067 20.3082 19.326C20.3037 19.5851 20.1987 19.8323 20.0155 20.0155C19.8323 20.1987 19.5851 20.3037 19.326 20.3082C19.067 20.3128 18.8162 20.2166 18.6267 20.04L16 17.4133L13.3733 20.04C13.1838 20.2166 12.933 20.3128 12.674 20.3082C12.4149 20.3037 12.1677 20.1987 11.9845 20.0155C11.8013 19.8323 11.6963 19.5851 11.6918 19.326C11.6872 19.067 11.7834 18.8162 11.96 18.6267L14.5867 16L11.96 13.3733C11.7727 13.1858 11.6675 12.9317 11.6675 12.6667C11.6675 12.4017 11.7727 12.1475 11.96 11.96Z" fill="#151515"/>
</g>
</svg>
