<svg width="32" height="32" viewBox="0 0 32 32" fill="none" xmlns="http://www.w3.org/2000/svg">
<path opacity="0.5" d="M16 2.6665C10.1093 2.6665 5.33331 8.00384 5.33331 13.9998C5.33331 19.9492 8.73731 26.4158 14.0493 28.8985C14.6599 29.1844 15.3258 29.3326 16 29.3326C16.6742 29.3326 17.3401 29.1844 17.9506 28.8985C23.2626 26.4158 26.6666 19.9492 26.6666 13.9998C26.6666 8.00384 21.8906 2.6665 16 2.6665Z" fill="white"/>
<path d="M16 16.6667C16.8841 16.6667 17.7319 16.3155 18.357 15.6904C18.9822 15.0652 19.3334 14.2174 19.3334 13.3333C19.3334 12.4493 18.9822 11.6014 18.357 10.9763C17.7319 10.3512 16.8841 10 16 10C15.116 10 14.2681 10.3512 13.643 10.9763C13.0179 11.6014 12.6667 12.4493 12.6667 13.3333C12.6667 14.2174 13.0179 15.0652 13.643 15.6904C14.2681 16.3155 15.116 16.6667 16 16.6667Z" fill="white"/>
</svg>
