<svg width="32" height="32" viewBox="0 0 32 32" fill="none" xmlns="http://www.w3.org/2000/svg">
<g id="Add Doc">
<path id="Vector" opacity="0.5" d="M28 21.3307V13.3307C28 9.56004 28 7.67471 26.828 6.50271C25.804 5.47871 24.2333 5.34937 21.3333 5.33337H10.6667C7.76667 5.34937 6.196 5.47871 5.172 6.50271C4 7.67471 4 9.56004 4 13.3307V21.3307C4 25.1027 4 26.988 5.172 28.16C6.34267 29.3307 8.22933 29.3307 12 29.3307H20C23.7707 29.3307 25.6573 29.3307 26.828 28.16C28 26.9867 28 25.1027 28 21.3307Z" fill="#151515"/>
<path id="Vector_2" d="M10.6667 4.66663C10.6667 4.13619 10.8774 3.62749 11.2525 3.25241C11.6275 2.87734 12.1363 2.66663 12.6667 2.66663H19.3334C19.8638 2.66663 20.3725 2.87734 20.7476 3.25241C21.1226 3.62749 21.3334 4.13619 21.3334 4.66663V5.99996C21.3334 6.53039 21.1226 7.0391 20.7476 7.41417C20.3725 7.78925 19.8638 7.99996 19.3334 7.99996H12.6667C12.1363 7.99996 11.6275 7.78925 11.2525 7.41417C10.8774 7.0391 10.6667 6.53039 10.6667 5.99996V4.66663Z" fill="#151515"/>
<path id="Vector_3" fill-rule="evenodd" clip-rule="evenodd" d="M16 12.3334C16.2652 12.3334 16.5196 12.4387 16.7071 12.6263C16.8946 12.8138 17 13.0682 17 13.3334V16.3334H20C20.2652 16.3334 20.5196 16.4387 20.7071 16.6263C20.8946 16.8138 21 17.0682 21 17.3334C21 17.5986 20.8946 17.8529 20.7071 18.0405C20.5196 18.228 20.2652 18.3334 20 18.3334H17V21.3334C17 21.5986 16.8946 21.8529 16.7071 22.0405C16.5196 22.228 16.2652 22.3334 16 22.3334C15.7348 22.3334 15.4804 22.228 15.2929 22.0405C15.1054 21.8529 15 21.5986 15 21.3334V18.3334H12C11.7348 18.3334 11.4804 18.228 11.2929 18.0405C11.1054 17.8529 11 17.5986 11 17.3334C11 17.0682 11.1054 16.8138 11.2929 16.6263C11.4804 16.4387 11.7348 16.3334 12 16.3334H15V13.3334C15 13.0682 15.1054 12.8138 15.2929 12.6263C15.4804 12.4387 15.7348 12.3334 16 12.3334Z" fill="#151515"/>
</g>
</svg>
