<svg width="32" height="32" viewBox="0 0 32 32" fill="none" xmlns="http://www.w3.org/2000/svg">
<path opacity="0.5" d="M2.66669 16.272C2.66669 13.22 2.66669 11.6946 3.36002 10.4306C4.05069 9.16529 5.31602 8.38129 7.84535 6.81063L10.512 5.15596C13.1854 3.49596 14.5227 2.66663 16 2.66663C17.4774 2.66663 18.8134 3.49596 21.488 5.15596L24.1547 6.81063C26.684 8.38129 27.9494 9.16529 28.6414 10.4306C29.3334 11.6946 29.3334 13.22 29.3334 16.2706V18.3C29.3334 23.5 29.3334 26.1013 27.7707 27.7173C26.2094 29.3333 23.6947 29.3333 18.6667 29.3333H13.3334C8.30535 29.3333 5.79069 29.3333 4.22935 27.7173C2.66669 26.1013 2.66669 23.5013 2.66669 18.3V16.272Z" fill="white"/>
<path d="M15 24C15 24.2652 15.1054 24.5196 15.2929 24.7071C15.4804 24.8946 15.7348 25 16 25C16.2652 25 16.5196 24.8946 16.7071 24.7071C16.8946 24.5196 17 24.2652 17 24V20C17 19.7348 16.8946 19.4804 16.7071 19.2929C16.5196 19.1054 16.2652 19 16 19C15.7348 19 15.4804 19.1054 15.2929 19.2929C15.1054 19.4804 15 19.7348 15 20V24Z" fill="white"/>
</svg>
