<svg width="32" height="32" viewBox="0 0 32 32" fill="none" xmlns="http://www.w3.org/2000/svg">
<path opacity="0.5" d="M2.6665 16.272C2.6665 13.22 2.6665 11.6947 3.35984 10.4307C4.0505 9.16533 5.31584 8.38133 7.84517 6.81066L10.5118 5.156C13.1852 3.496 14.5225 2.66666 15.9998 2.66666C17.4772 2.66666 18.8132 3.496 21.4878 5.156L24.1545 6.81066C26.6838 8.38133 27.9492 9.16533 28.6412 10.4307C29.3332 11.6947 29.3332 13.22 29.3332 16.2707V18.3C29.3332 23.5 29.3332 26.1013 27.7705 27.7173C26.2092 29.3333 23.6945 29.3333 18.6665 29.3333H13.3332C8.30517 29.3333 5.7905 29.3333 4.22917 27.7173C2.6665 26.1013 2.6665 23.5013 2.6665 18.3V16.272Z" fill="#151515"/>
<path d="M15 24C15 24.2652 15.1054 24.5196 15.2929 24.7071C15.4804 24.8946 15.7348 25 16 25C16.2652 25 16.5196 24.8946 16.7071 24.7071C16.8946 24.5196 17 24.2652 17 24V20C17 19.7348 16.8946 19.4804 16.7071 19.2929C16.5196 19.1054 16.2652 19 16 19C15.7348 19 15.4804 19.1054 15.2929 19.2929C15.1054 19.4804 15 19.7348 15 20V24Z" fill="#151515"/>
</svg>
