<svg width="32" height="32" viewBox="0 0 32 32" fill="none" xmlns="http://www.w3.org/2000/svg">
<path opacity="0.5" d="M29.3334 16C29.3334 23.364 23.364 29.3333 16 29.3333C8.63602 29.3333 2.66669 23.364 2.66669 16C2.66669 8.63596 8.63602 2.66663 16 2.66663C23.364 2.66663 29.3334 8.63596 29.3334 16Z" fill="white"/>
<path d="M16 23.6667C16.2652 23.6667 16.5196 23.5614 16.7071 23.3738C16.8947 23.1863 17 22.9319 17 22.6667V14.6667C17 14.4015 16.8947 14.1471 16.7071 13.9596C16.5196 13.7721 16.2652 13.6667 16 13.6667C15.7348 13.6667 15.4805 13.7721 15.2929 13.9596C15.1054 14.1471 15 14.4015 15 14.6667V22.6667C15 23.2187 15.448 23.6667 16 23.6667ZM16 9.33337C16.3536 9.33337 16.6928 9.47385 16.9428 9.7239C17.1929 9.97395 17.3334 10.3131 17.3334 10.6667C17.3334 11.0203 17.1929 11.3595 16.9428 11.6095C16.6928 11.8596 16.3536 12 16 12C15.6464 12 15.3073 11.8596 15.0572 11.6095C14.8072 11.3595 14.6667 11.0203 14.6667 10.6667C14.6667 10.3131 14.8072 9.97395 15.0572 9.7239C15.3073 9.47385 15.6464 9.33337 16 9.33337Z" fill="white"/>
</svg>
