<svg width="32" height="32" viewBox="0 0 32 32" fill="none" xmlns="http://www.w3.org/2000/svg">
<path opacity="0.5" d="M21.3333 2.66669H20C16.228 2.66669 14.344 2.66669 13.172 3.83869C12 5.01069 12 6.89602 12 10.6667V21.3334C12 25.1054 12 26.9907 13.172 28.1627C14.3427 29.3334 16.228 29.3334 19.9973 29.3334H21.3333C25.104 29.3334 26.9893 29.3334 28.1613 28.1614C29.3333 26.9907 29.3333 25.104 29.3333 21.3334V10.6667C29.3333 6.89602 29.3333 5.00935 28.1613 3.83869C26.9893 2.66669 25.104 2.66669 21.3333 2.66669Z" fill="#151515"/>
<path fill-rule="evenodd" clip-rule="evenodd" d="M21.0001 16C21.0001 15.7348 20.8947 15.4804 20.7072 15.2929C20.5197 15.1054 20.2653 15 20.0001 15H5.36943L7.98409 12.76C8.0839 12.6745 8.16589 12.5703 8.2254 12.4531C8.28491 12.336 8.32077 12.2083 8.33092 12.0773C8.34107 11.9463 8.32532 11.8146 8.28457 11.6897C8.24382 11.5648 8.17887 11.4491 8.09343 11.3493C8.00798 11.2495 7.90371 11.1675 7.78658 11.108C7.66944 11.0485 7.54173 11.0127 7.41074 11.0025C7.27974 10.9924 7.14803 11.0081 7.02313 11.0488C6.89822 11.0896 6.78256 11.1545 6.68276 11.24L2.01609 15.24C1.90631 15.3339 1.81817 15.4504 1.75774 15.5816C1.69731 15.7128 1.66602 15.8555 1.66602 16C1.66602 16.1444 1.69731 16.2872 1.75774 16.4184C1.81817 16.5496 1.90631 16.6661 2.01609 16.76L6.68276 20.76C6.88432 20.9326 7.14618 21.018 7.41074 20.9975C7.67529 20.977 7.92086 20.8522 8.09343 20.6507C8.26599 20.4491 8.35142 20.1872 8.33092 19.9227C8.31041 19.6581 8.18566 19.4126 7.98409 19.24L5.37076 17H20.0001C20.2653 17 20.5197 16.8946 20.7072 16.7071C20.8947 16.5196 21.0001 16.2652 21.0001 16Z" fill="#151515"/>
</svg>
