<svg width="32" height="32" viewBox="0 0 32 32" fill="none" xmlns="http://www.w3.org/2000/svg">
<path opacity="0.5" fill-rule="evenodd" clip-rule="evenodd" d="M19.0387 2.86933C18.5454 2.66667 17.9187 2.66667 16.6667 2.66667C15.4147 2.66667 14.7894 2.66667 14.2947 2.86933C13.9692 3.00233 13.6733 3.19838 13.4238 3.4462C13.1744 3.69402 12.9765 3.98872 12.8414 4.31333C12.7161 4.61067 12.6681 4.95867 12.6481 5.464C12.6385 5.83 12.5361 6.18758 12.3505 6.50314C12.1648 6.8187 11.902 7.0819 11.5867 7.268C11.265 7.44681 10.9034 7.54153 10.5354 7.54339C10.1674 7.54526 9.80486 7.4542 9.48139 7.27867C9.03072 7.04133 8.70405 6.91067 8.38139 6.868C7.6755 6.7759 6.96174 6.9656 6.39472 7.396C5.97072 7.71867 5.65739 8.25733 5.03205 9.33333C4.40539 10.4093 4.09339 10.9467 4.02272 11.4733C3.92939 12.1747 4.12139 12.884 4.55605 13.4453C4.75339 13.7013 5.03205 13.916 5.46272 14.1853C6.09872 14.5813 6.50672 15.256 6.50672 16C6.50672 16.744 6.09872 17.4187 5.46405 17.8133C5.03205 18.084 4.75339 18.2987 4.55472 18.5547C4.34081 18.8323 4.18372 19.1493 4.09244 19.4877C4.00115 19.8261 3.97746 20.1791 4.02272 20.5267C4.09339 21.052 4.40539 21.5907 5.03205 22.6667C5.65872 23.7427 5.97072 24.28 6.39472 24.604C6.96005 25.0347 7.67472 25.224 8.38139 25.132C8.70405 25.0893 9.03072 24.9587 9.48139 24.7213C9.80502 24.5456 10.1678 24.4544 10.5361 24.4562C10.9044 24.4581 11.2662 24.553 11.5881 24.732C12.2361 25.1053 12.6201 25.792 12.6481 26.536C12.6681 27.0427 12.7161 27.3893 12.8414 27.6867C13.1134 28.34 13.6361 28.86 14.2947 29.1307C14.7881 29.3333 15.4147 29.3333 16.6667 29.3333C17.9187 29.3333 18.5454 29.3333 19.0387 29.1307C19.3642 28.9977 19.6602 28.8016 19.9096 28.5538C20.159 28.306 20.357 28.0113 20.4921 27.6867C20.6174 27.3893 20.6654 27.0427 20.6854 26.536C20.7121 25.792 21.0974 25.104 21.7467 24.732C22.0684 24.5532 22.43 24.4585 22.798 24.4566C23.166 24.4547 23.5286 24.5458 23.8521 24.7213C24.3027 24.9587 24.6294 25.0893 24.9521 25.132C25.6587 25.2253 26.3734 25.0347 26.9387 24.604C27.3627 24.2813 27.6761 23.7427 28.3014 22.6667C28.9281 21.5907 29.2401 21.0533 29.3107 20.5267C29.3558 20.179 29.3319 19.8259 29.2404 19.4876C29.1489 19.1492 28.9915 18.8322 28.7774 18.5547C28.5801 18.2987 28.3014 18.084 27.8707 17.8147C27.2347 17.4187 26.8267 16.744 26.8267 16C26.8267 15.256 27.2347 14.5813 27.8694 14.1867C28.3014 13.916 28.5801 13.7013 28.7787 13.4453C28.9926 13.1677 29.1497 12.8507 29.241 12.5123C29.3323 12.1739 29.356 11.8209 29.3107 11.4733C29.2401 10.948 28.9281 10.4093 28.3014 9.33333C27.6747 8.25733 27.3627 7.72 26.9387 7.396C26.3717 6.9656 25.6579 6.7759 24.9521 6.868C24.6294 6.91067 24.3027 7.04133 23.8521 7.27867C23.5284 7.45444 23.1656 7.54562 22.7974 7.54376C22.4291 7.54189 22.0672 7.44704 21.7454 7.268C21.4303 7.08174 21.1678 6.81847 20.9824 6.50292C20.797 6.18737 20.6948 5.82987 20.6854 5.464C20.6654 4.95733 20.6174 4.61067 20.4921 4.31333C20.357 3.98872 20.159 3.69402 19.9096 3.4462C19.6602 3.19838 19.3642 3.00233 19.0387 2.86933Z" fill="#151515"/>
<path d="M20.6973 16C20.6973 18.2093 18.892 20 16.6667 20C14.4413 20 12.636 18.2093 12.636 16C12.636 13.7907 14.44 12 16.6667 12C18.8933 12 20.6973 13.7907 20.6973 16Z" fill="#151515"/>
</svg>
