<svg width="32" height="32" viewBox="0 0 32 32" fill="none" xmlns="http://www.w3.org/2000/svg">
<path opacity="0.5" fill-rule="evenodd" clip-rule="evenodd" d="M19.0387 2.86941C18.5453 2.66675 17.9187 2.66675 16.6667 2.66675C15.4147 2.66675 14.7893 2.66675 14.2947 2.86941C13.9692 3.00241 13.6732 3.19846 13.4238 3.44628C13.1744 3.6941 12.9764 3.9888 12.8413 4.31341C12.716 4.61075 12.668 4.95875 12.648 5.46408C12.6385 5.83008 12.5361 6.18766 12.3504 6.50322C12.1648 6.81878 11.902 7.08198 11.5867 7.26808C11.265 7.44689 10.9034 7.54161 10.5354 7.54347C10.1673 7.54534 9.8048 7.45428 9.48133 7.27875C9.03066 7.04141 8.70399 6.91075 8.38133 6.86808C7.67544 6.77598 6.96168 6.96568 6.39466 7.39608C5.97066 7.71875 5.65733 8.25741 5.03199 9.33341C4.40533 10.4094 4.09333 10.9467 4.02266 11.4734C3.92933 12.1747 4.12133 12.8841 4.55599 13.4454C4.75333 13.7014 5.03199 13.9161 5.46266 14.1854C6.09866 14.5814 6.50666 15.2561 6.50666 16.0001C6.50666 16.7441 6.09866 17.4187 5.46399 17.8134C5.03199 18.0841 4.75333 18.2987 4.55466 18.5547C4.34075 18.8324 4.18366 19.1494 4.09237 19.4878C4.00109 19.8262 3.9774 20.1792 4.02266 20.5267C4.09333 21.0521 4.40533 21.5907 5.03199 22.6667C5.65866 23.7427 5.97066 24.2801 6.39466 24.6041C6.95999 25.0347 7.67466 25.2241 8.38133 25.1321C8.70399 25.0894 9.03066 24.9587 9.48133 24.7214C9.80496 24.5456 10.1677 24.4545 10.536 24.4563C10.9043 24.4582 11.2662 24.553 11.588 24.7321C12.236 25.1054 12.62 25.7921 12.648 26.5361C12.668 27.0427 12.716 27.3894 12.8413 27.6867C13.1133 28.3401 13.636 28.8601 14.2947 29.1307C14.788 29.3334 15.4147 29.3334 16.6667 29.3334C17.9187 29.3334 18.5453 29.3334 19.0387 29.1307C19.3641 28.9978 19.6601 28.8017 19.9095 28.5539C20.159 28.3061 20.3569 28.0114 20.492 27.6867C20.6173 27.3894 20.6653 27.0427 20.6853 26.5361C20.712 25.7921 21.0973 25.1041 21.7467 24.7321C22.0683 24.5533 22.4299 24.4586 22.798 24.4567C23.166 24.4548 23.5285 24.5459 23.852 24.7214C24.3027 24.9587 24.6293 25.0894 24.952 25.1321C25.6587 25.2254 26.3733 25.0347 26.9387 24.6041C27.3627 24.2814 27.676 23.7427 28.3013 22.6667C28.928 21.5907 29.24 21.0534 29.3107 20.5267C29.3557 20.1791 29.3318 19.826 29.2403 19.4876C29.1488 19.1493 28.9915 18.8323 28.7773 18.5547C28.58 18.2987 28.3013 18.0841 27.8707 17.8147C27.2347 17.4187 26.8267 16.7441 26.8267 16.0001C26.8267 15.2561 27.2347 14.5814 27.8693 14.1867C28.3013 13.9161 28.58 13.7014 28.7787 13.4454C28.9926 13.1678 29.1497 12.8507 29.2409 12.5124C29.3322 12.174 29.3559 11.8209 29.3107 11.4734C29.24 10.9481 28.928 10.4094 28.3013 9.33341C27.6747 8.25741 27.3627 7.72008 26.9387 7.39608C26.3716 6.96568 25.6579 6.77598 24.952 6.86808C24.6293 6.91075 24.3027 7.04141 23.852 7.27875C23.5284 7.45452 23.1656 7.5457 22.7973 7.54384C22.429 7.54197 22.0672 7.44712 21.7453 7.26808C21.4303 7.08182 21.1677 6.81855 20.9823 6.503C20.7969 6.18745 20.6947 5.82995 20.6853 5.46408C20.6653 4.95741 20.6173 4.61075 20.492 4.31341C20.3569 3.9888 20.159 3.6941 19.9095 3.44628C19.6601 3.19846 19.3641 3.00241 19.0387 2.86941Z" fill="white"/>
<path d="M20.6973 16C20.6973 18.2093 18.892 20 16.6667 20C14.4413 20 12.636 18.2093 12.636 16C12.636 13.7907 14.44 12 16.6667 12C18.8933 12 20.6973 13.7907 20.6973 16Z" fill="white"/>
</svg>
