<svg width="20" height="20" viewBox="0 0 20 20" fill="none" xmlns="http://www.w3.org/2000/svg">
<path opacity="0.5" d="M18.3332 9.99984C18.3332 14.6023 14.6023 18.3332 9.99984 18.3332C5.39734 18.3332 1.6665 14.6023 1.6665 9.99984C1.6665 5.39734 5.39734 1.6665 9.99984 1.6665C14.6023 1.6665 18.3332 5.39734 18.3332 9.99984Z" fill="#234596"/>
<path d="M10.625 7.5C10.625 7.33424 10.5592 7.17527 10.4419 7.05806C10.3247 6.94085 10.1658 6.875 10 6.875C9.83424 6.875 9.67527 6.94085 9.55806 7.05806C9.44085 7.17527 9.375 7.33424 9.375 7.5V9.375H7.5C7.33424 9.375 7.17527 9.44085 7.05806 9.55806C6.94085 9.67527 6.875 9.83424 6.875 10C6.875 10.1658 6.94085 10.3247 7.05806 10.4419C7.17527 10.5592 7.33424 10.625 7.5 10.625H9.375V12.5C9.375 12.6658 9.44085 12.8247 9.55806 12.9419C9.67527 13.0592 9.83424 13.125 10 13.125C10.1658 13.125 10.3247 13.0592 10.4419 12.9419C10.5592 12.8247 10.625 12.6658 10.625 12.5V10.625H12.5C12.6658 10.625 12.8247 10.5592 12.9419 10.4419C13.0592 10.3247 13.125 10.1658 13.125 10C13.125 9.83424 13.0592 9.67527 12.9419 9.55806C12.8247 9.44085 12.6658 9.375 12.5 9.375H10.625V7.5Z" fill="#234596"/>
</svg>
