<svg width="20" height="20" viewBox="0 0 20 20" fill="none" xmlns="http://www.w3.org/2000/svg">
<path d="M11.3259 10.0002L15.0369 6.28922C15.213 6.11341 15.3121 5.87484 15.3123 5.62599C15.3125 5.37714 15.2139 5.13839 15.0381 4.96227C14.8622 4.78615 14.6237 4.68708 14.3748 4.68686C14.126 4.68664 13.8872 4.78529 13.7111 4.9611L10.0002 8.67204L6.28922 4.9611C6.1131 4.78498 5.87423 4.68604 5.62516 4.68604C5.37609 4.68604 5.13722 4.78498 4.9611 4.9611C4.78498 5.13722 4.68604 5.37609 4.68604 5.62516C4.68604 5.87423 4.78498 6.1131 4.9611 6.28922L8.67204 10.0002L4.9611 13.7111C4.78498 13.8872 4.68604 14.1261 4.68604 14.3752C4.68604 14.6242 4.78498 14.8631 4.9611 15.0392C5.13722 15.2153 5.37609 15.3143 5.62516 15.3143C5.87423 15.3143 6.1131 15.2153 6.28922 15.0392L10.0002 11.3283L13.7111 15.0392C13.8872 15.2153 14.1261 15.3143 14.3752 15.3143C14.6242 15.3143 14.8631 15.2153 15.0392 15.0392C15.2153 14.8631 15.3143 14.6242 15.3143 14.3752C15.3143 14.1261 15.2153 13.8872 15.0392 13.7111L11.3259 10.0002Z" fill="white"/>
</svg>
