<svg width="20" height="20" viewBox="0 0 20 20" fill="none" xmlns="http://www.w3.org/2000/svg">
<path d="M13.7659 13.7508C13.9117 13.6374 14.0442 13.5049 14.3084 13.2408L17.6059 9.94243C17.6859 9.86326 17.6492 9.72576 17.5434 9.68826C17.0274 9.50843 16.5589 9.2138 16.1734 8.8266C15.7862 8.44103 15.4915 7.97259 15.3117 7.4566C15.2742 7.35076 15.1367 7.3141 15.0575 7.3941L11.7584 10.6916C11.4942 10.9558 11.3617 11.0883 11.2484 11.2341C11.1142 11.4066 10.9984 11.5924 10.905 11.7891C10.8259 11.9558 10.7667 12.1341 10.6484 12.4891L10.495 12.9474L10.2517 13.6766L10.0242 14.3599C9.99583 14.4456 9.99183 14.5374 10.0126 14.6252C10.0335 14.713 10.0783 14.7933 10.1421 14.8571C10.2058 14.9209 10.2861 14.9657 10.3739 14.9865C10.4617 15.0073 10.5535 15.0033 10.6392 14.9749L11.3225 14.7474L12.0517 14.5041L12.51 14.3508C12.865 14.2324 13.0434 14.1741 13.21 14.0941C13.4067 13.9999 13.5942 13.8858 13.7659 13.7508ZM18.6392 8.90993C18.9772 8.57178 19.1671 8.11319 19.167 7.63505C19.1669 7.15691 18.9769 6.69839 18.6388 6.36035C18.3006 6.02231 17.842 5.83244 17.3639 5.83252C16.8858 5.8326 16.4272 6.02261 16.0892 6.36076L15.9842 6.46743C15.9337 6.51717 15.8962 6.57844 15.8747 6.64595C15.8532 6.71346 15.8484 6.78518 15.8609 6.85493C15.8775 6.9441 15.9067 7.07576 15.9609 7.2316C16.0692 7.5441 16.2742 7.9541 16.66 8.33993C16.9717 8.65404 17.3507 8.89313 17.7684 9.0391C17.925 9.09326 18.0559 9.12243 18.145 9.1391C18.2148 9.15144 18.2865 9.14667 18.354 9.12519C18.4215 9.10371 18.4827 9.06615 18.5325 9.01576L18.6392 8.90993Z" fill="#5B5B5B"/>
<path opacity="0.5" fill-rule="evenodd" clip-rule="evenodd" d="M3.47667 2.64341C2.5 3.61925 2.5 5.19091 2.5 8.33342V11.6667C2.5 14.8092 2.5 16.3809 3.47667 17.3567C4.4525 18.3334 6.02417 18.3334 9.16667 18.3334H10.8333C13.9758 18.3334 15.5475 18.3334 16.5233 17.3567C17.4842 16.3967 17.5 14.8601 17.5 11.8167L15.1517 14.1651C14.9267 14.3901 14.7425 14.5742 14.535 14.7367C14.2912 14.9268 14.0274 15.0897 13.7483 15.2226C13.4925 15.3373 13.2297 15.4361 12.9617 15.5184L11.035 16.1609C10.7292 16.2629 10.4009 16.2777 10.0872 16.2037C9.77336 16.1296 9.4864 15.9696 9.25842 15.7417C9.03045 15.5137 8.87047 15.2267 8.79642 14.9129C8.72237 14.5991 8.73717 14.2709 8.83917 13.9651L9.0675 13.2817L9.46333 12.0934L9.48083 12.0384C9.58167 11.7367 9.66417 11.4901 9.7775 11.2517C9.91083 10.9726 10.0733 10.7092 10.2633 10.4659C10.4258 10.2576 10.61 10.0742 10.835 9.84925L14.1733 6.51008L15.1 5.58341L15.2058 5.47758C15.489 5.19358 15.8256 4.96838 16.1961 4.81492C16.5667 4.66147 16.9639 4.58279 17.365 4.58341C17.2392 3.72508 16.995 3.11425 16.5233 2.64341C15.5475 1.66675 13.9758 1.66675 10.8333 1.66675H9.16667C6.02417 1.66675 4.4525 1.66675 3.47667 2.64341ZM6.04167 7.50008C6.04167 7.33432 6.10751 7.17535 6.22472 7.05814C6.34193 6.94093 6.50091 6.87508 6.66667 6.87508H12.0833C12.2491 6.87508 12.4081 6.94093 12.5253 7.05814C12.6425 7.17535 12.7083 7.33432 12.7083 7.50008C12.7083 7.66584 12.6425 7.82481 12.5253 7.94202C12.4081 8.05923 12.2491 8.12508 12.0833 8.12508H6.66667C6.50091 8.12508 6.34193 8.05923 6.22472 7.94202C6.10751 7.82481 6.04167 7.66584 6.04167 7.50008ZM6.04167 10.8334C6.04167 10.6677 6.10751 10.5087 6.22472 10.3915C6.34193 10.2743 6.50091 10.2084 6.66667 10.2084H8.75C8.91576 10.2084 9.07473 10.2743 9.19194 10.3915C9.30915 10.5087 9.375 10.6677 9.375 10.8334C9.375 10.9992 9.30915 11.1581 9.19194 11.2754C9.07473 11.3926 8.91576 11.4584 8.75 11.4584H6.66667C6.50091 11.4584 6.34193 11.3926 6.22472 11.2754C6.10751 11.1581 6.04167 10.9992 6.04167 10.8334ZM6.04167 14.1667C6.04167 14.001 6.10751 13.842 6.22472 13.7248C6.34193 13.6076 6.50091 13.5417 6.66667 13.5417H7.91667C8.08243 13.5417 8.2414 13.6076 8.35861 13.7248C8.47582 13.842 8.54167 14.001 8.54167 14.1667C8.54167 14.3325 8.47582 14.4915 8.35861 14.6087C8.2414 14.7259 8.08243 14.7917 7.91667 14.7917H6.66667C6.50091 14.7917 6.34193 14.7259 6.22472 14.6087C6.10751 14.4915 6.04167 14.3325 6.04167 14.1667Z" fill="#5B5B5B"/>
</svg>
