<svg width="20" height="20" viewBox="0 0 20 20" fill="none" xmlns="http://www.w3.org/2000/svg">
<path opacity="0.5" d="M3.33337 10C3.33337 11.7681 4.03575 13.4638 5.286 14.714C6.53624 15.9643 8.23193 16.6667 10 16.6667C11.7682 16.6667 13.4638 15.9643 14.7141 14.714C15.9643 13.4638 16.6667 11.7681 16.6667 10H3.33337Z" fill="white"/>
<path fill-rule="evenodd" clip-rule="evenodd" d="M12.9417 6.2751C12.8245 6.39214 12.6657 6.45788 12.5 6.45788C12.3344 6.45788 12.1756 6.39214 12.0584 6.2751L10.625 4.84177V11.6668C10.625 11.8325 10.5592 11.9915 10.442 12.1087C10.3248 12.2259 10.1658 12.2918 10 12.2918C9.83427 12.2918 9.6753 12.2259 9.55809 12.1087C9.44088 11.9915 9.37504 11.8325 9.37504 11.6668V4.84177L7.9417 6.2751C7.82322 6.3855 7.66652 6.4456 7.5046 6.44275C7.34268 6.43989 7.18819 6.3743 7.07368 6.25979C6.95917 6.14528 6.89358 5.99079 6.89072 5.82887C6.88787 5.66695 6.94797 5.51025 7.05837 5.39177L9.55837 2.89177C9.67556 2.77473 9.83441 2.70898 10 2.70898C10.1657 2.70898 10.3245 2.77473 10.4417 2.89177L12.9417 5.39177C13.0587 5.50896 13.1245 5.66781 13.1245 5.83343C13.1245 5.99906 13.0587 6.15791 12.9417 6.2751Z" fill="white"/>
</svg>
