<svg width="32" height="32" viewBox="0 0 32 32" fill="none" xmlns="http://www.w3.org/2000/svg">
<path opacity="0.5" fill-rule="evenodd" clip-rule="evenodd" d="M13.3332 29.3333H18.6665C23.6945 29.3333 26.2092 29.3333 27.7705 27.7707C29.3332 26.2093 29.3332 23.6947 29.3332 18.6667V18.084C29.3332 16.92 29.3332 16.0453 29.2758 15.3333H23.8732C22.4105 15.3333 21.1172 15.3333 20.0758 15.1933C18.9465 15.0413 17.8172 14.6933 16.8958 13.772C15.9732 12.8493 15.6252 11.72 15.4732 10.5907C15.3332 9.54932 15.3332 8.25732 15.3332 6.79332L15.3465 3.01466C15.3465 2.90399 15.3558 2.79599 15.3732 2.68932C14.8278 2.66666 14.1812 2.66666 13.3732 2.66666C8.3185 2.66666 5.7905 2.66666 4.22917 4.22932C2.6665 5.79066 2.6665 8.30532 2.6665 13.3333V18.6667C2.6665 23.6947 2.6665 26.2093 4.22917 27.7707C5.7905 29.3333 8.30517 29.3333 13.3332 29.3333Z" fill="#151515"/>
<path d="M8.70671 19.2933C8.51714 19.1167 8.26641 19.0205 8.00735 19.0251C7.74828 19.0297 7.5011 19.1346 7.31788 19.3178C7.13466 19.5011 7.02971 19.7482 7.02514 20.0073C7.02057 20.2664 7.11673 20.5171 7.29337 20.7067L8.58671 22L7.29337 23.2933C7.19513 23.3849 7.11632 23.4953 7.06167 23.618C7.00701 23.7406 6.97762 23.873 6.97525 24.0073C6.97288 24.1416 6.99758 24.275 7.04788 24.3995C7.09817 24.524 7.17303 24.6371 7.26799 24.7321C7.36295 24.827 7.47606 24.9019 7.60058 24.9522C7.7251 25.0025 7.85847 25.0272 7.99274 25.0248C8.12701 25.0224 8.25943 24.993 8.38209 24.9384C8.50476 24.8837 8.61516 24.8049 8.70671 24.7067L10 23.4133L11.2934 24.7067C11.4829 24.8833 11.7337 24.9795 11.9927 24.9749C12.2518 24.9703 12.499 24.8654 12.6822 24.6822C12.8654 24.499 12.9704 24.2518 12.9749 23.9927C12.9795 23.7336 12.8833 23.4829 12.7067 23.2933L11.4134 22L12.7067 20.7067C12.805 20.6151 12.8838 20.5047 12.9384 20.3821C12.9931 20.2594 13.0225 20.127 13.0248 19.9927C13.0272 19.8584 13.0025 19.7251 12.9522 19.6005C12.9019 19.476 12.8271 19.3629 12.7321 19.268C12.6371 19.173 12.524 19.0981 12.3995 19.0478C12.275 18.9975 12.1416 18.9728 12.0073 18.9752C11.8731 18.9776 11.7407 19.007 11.618 19.0616C11.4953 19.1163 11.3849 19.1951 11.2934 19.2933L10 20.5867L8.70671 19.2933ZM15.3467 3.01334L15.3334 6.79334C15.3334 8.25601 15.3334 9.54801 15.4734 10.5907C15.6254 11.72 15.9734 12.8493 16.896 13.7707C17.816 14.692 18.9467 15.0413 20.076 15.1933C21.1174 15.3333 22.4107 15.3333 23.8734 15.3333H29.276C29.2934 15.54 29.3054 15.7613 29.3134 16H29.3334C29.3334 15.6427 29.3334 15.464 29.32 15.2533C29.2173 13.9863 28.7762 12.7702 28.0427 11.732C27.9174 11.5613 27.832 11.46 27.6627 11.256C26.6054 9.99201 25.2134 8.41601 24 7.33334C22.92 6.36801 21.4387 5.31334 20.1467 4.45201C19.0374 3.71067 18.4827 3.34001 17.7214 3.06534C17.4999 2.98609 17.2748 2.91757 17.0467 2.86001C16.5347 2.73334 16.036 2.68934 15.3334 2.67334L15.3467 3.01334Z" fill="#151515"/>
</svg>
