<svg width="20" height="20" viewBox="0 0 20 20" fill="none" xmlns="http://www.w3.org/2000/svg">
<path fill-rule="evenodd" clip-rule="evenodd" d="M4.16675 2.5H15.8334L7.34675 10.9867C7.20986 10.6355 6.98692 10.3243 6.69841 10.0817C6.50841 9.91667 6.24258 9.7675 5.71258 9.46833L3.28508 8.10167C2.49425 7.6575 2.09925 7.435 1.88341 7.07667C1.66675 6.7175 1.66675 6.28417 1.66675 5.41917V4.84417C1.66675 3.73917 1.66675 3.18583 2.03341 2.8425C2.39841 2.5 2.98758 2.5 4.16675 2.5Z" fill="white"/>
<path opacity="0.5" d="M18.3334 5.42V4.845C18.3334 3.74 18.3334 3.18667 17.9668 2.84333C17.6018 2.5 17.0126 2.5 15.8334 2.5L7.34595 10.9867C7.38761 11.0939 7.42123 11.2058 7.44678 11.3225C7.50011 11.56 7.50011 11.8383 7.50011 12.3942V14.6192C7.50011 15.3767 7.50011 15.7558 7.71011 16.0508C7.92011 16.3467 8.29345 16.4925 9.03845 16.7842C10.6043 17.3958 11.3868 17.7017 11.9434 17.3533C12.5001 17.005 12.5001 16.21 12.5001 14.6183V12.3933C12.5001 11.8383 12.5001 11.56 12.5526 11.3225C12.6575 10.8367 12.9214 10.3997 13.3026 10.0808C13.4918 9.91667 13.7568 9.7675 14.2876 9.46833L16.7151 8.10167C17.5051 7.6575 17.9009 7.435 18.1168 7.07667C18.3334 6.71833 18.3334 6.285 18.3334 5.42Z" fill="white"/>
</svg>
