<svg width="72" height="72" viewBox="0 0 72 72" fill="none" xmlns="http://www.w3.org/2000/svg">
<path opacity="0.5" d="M66 36C66 52.569 52.569 66 36 66C19.431 66 6 52.569 6 36C6 19.431 19.431 6 36 6C52.569 6 66 19.431 66 36Z" fill="#D43E3F"/>
<path d="M26.91 26.9105C27.3319 26.4891 27.9037 26.2524 28.5 26.2524C29.0962 26.2524 29.6681 26.4891 30.09 26.9105L36 32.8205L41.91 26.9105C42.116 26.6894 42.3644 26.5121 42.6404 26.3891C42.9164 26.2661 43.2143 26.2 43.5164 26.1947C43.8185 26.1894 44.1186 26.2449 44.3988 26.3581C44.6789 26.4713 44.9334 26.6397 45.1471 26.8533C45.3607 27.067 45.5292 27.3215 45.6423 27.6017C45.7555 27.8818 45.8111 28.1819 45.8057 28.484C45.8004 28.7861 45.7343 29.0841 45.6113 29.3601C45.4883 29.6361 45.311 29.8845 45.09 30.0905L39.18 36.0005L45.09 41.9105C45.4874 42.337 45.7038 42.9011 45.6935 43.484C45.6832 44.0669 45.4471 44.6231 45.0348 45.0353C44.6226 45.4476 44.0664 45.6837 43.4835 45.694C42.9006 45.7043 42.3365 45.4879 41.91 45.0905L36 39.1805L30.09 45.0905C29.6634 45.4879 29.0993 45.7043 28.5164 45.694C27.9335 45.6837 27.3773 45.4476 26.9651 45.0353C26.5529 44.6231 26.3167 44.0669 26.3064 43.484C26.2962 42.9011 26.5125 42.337 26.91 41.9105L32.82 36.0005L26.91 30.0905C26.4886 29.6686 26.252 29.0967 26.252 28.5005C26.252 27.9042 26.4886 27.3323 26.91 26.9105Z" fill="#D43E3F"/>
</svg>
