<svg width="32" height="32" viewBox="0 0 32 32" fill="none" xmlns="http://www.w3.org/2000/svg">
<g id="Ask">
<path id="Vector" opacity="0.5" d="M29.3334 16C29.3334 23.364 23.364 29.3333 16 29.3333C8.63602 29.3333 2.66669 23.364 2.66669 16C2.66669 8.63596 8.63602 2.66663 16 2.66663C23.364 2.66663 29.3334 8.63596 29.3334 16Z" fill="#151515"/>
<path id="Vector_2" d="M16 10.3334C15.172 10.3334 14.5 11.0054 14.5 11.8334C14.5 12.0986 14.3946 12.353 14.2071 12.5405C14.0196 12.728 13.7652 12.8334 13.5 12.8334C13.2348 12.8334 12.9804 12.728 12.7929 12.5405C12.6054 12.353 12.5 12.0986 12.5 11.8334C12.5 11.26 12.6409 10.6953 12.9103 10.1891C13.1797 9.68295 13.5694 9.2507 14.045 8.93041C14.5206 8.61011 15.0676 8.41158 15.638 8.35227C16.2083 8.29296 16.7845 8.37469 17.3159 8.59027C17.8472 8.80585 18.3174 9.14868 18.6852 9.58861C19.053 10.0285 19.3071 10.5521 19.4251 11.1132C19.5431 11.6744 19.5214 12.2559 19.362 12.8067C19.2025 13.3575 18.9102 13.8607 18.5107 14.2721C18.388 14.3983 18.2707 14.5169 18.1587 14.6281C17.8886 14.8868 17.6344 15.1615 17.3973 15.4507C17.104 15.8267 17 16.1027 17 16.3334V17.3334C17 17.5986 16.8946 17.853 16.7071 18.0405C16.5196 18.228 16.2652 18.3334 16 18.3334C15.7348 18.3334 15.4804 18.228 15.2929 18.0405C15.1054 17.853 15 17.5986 15 17.3334V16.3334C15 15.4601 15.4067 14.7521 15.8187 14.2227C16.124 13.8307 16.5067 13.4494 16.8187 13.1374C16.9129 13.0441 16.9987 12.9578 17.076 12.8787C17.2815 12.6673 17.4201 12.3999 17.4745 12.1101C17.5289 11.8203 17.4967 11.5209 17.3819 11.2493C17.267 10.9777 17.0747 10.746 16.829 10.5831C16.5832 10.4202 16.2949 10.3333 16 10.3334ZM16 22.6667C16.3536 22.6667 16.6928 22.5262 16.9428 22.2762C17.1929 22.0261 17.3333 21.687 17.3333 21.3334C17.3333 20.9798 17.1929 20.6406 16.9428 20.3906C16.6928 20.1405 16.3536 20.0001 16 20.0001C15.6464 20.0001 15.3072 20.1405 15.0572 20.3906C14.8071 20.6406 14.6667 20.9798 14.6667 21.3334C14.6667 21.687 14.8071 22.0261 15.0572 22.2762C15.3072 22.5262 15.6464 22.6667 16 22.6667Z" fill="#151515"/>
</g>
</svg>
