<svg width="32" height="32" viewBox="0 0 32 32" fill="none" xmlns="http://www.w3.org/2000/svg">
<path opacity="0.5" d="M29.3334 16.0003C29.3334 23.3643 23.364 29.3337 16 29.3337C8.63602 29.3337 2.66669 23.3643 2.66669 16.0003C2.66669 8.63633 8.63602 2.66699 16 2.66699C23.364 2.66699 29.3334 8.63633 29.3334 16.0003Z" fill="white"/>
<path d="M16 10.3329C15.172 10.3329 14.5 11.0049 14.5 11.8329C14.5 12.0981 14.3946 12.3525 14.2071 12.54C14.0196 12.7275 13.7652 12.8329 13.5 12.8329C13.2348 12.8329 12.9804 12.7275 12.7929 12.54C12.6054 12.3525 12.5 12.0981 12.5 11.8329C12.5 11.2595 12.6409 10.6949 12.9103 10.1887C13.1797 9.68247 13.5694 9.25022 14.045 8.92992C14.5206 8.60962 15.0676 8.41109 15.638 8.35178C16.2083 8.29247 16.7845 8.3742 17.3159 8.58978C17.8472 8.80536 18.3174 9.14819 18.6852 9.58812C19.053 10.0281 19.3071 10.5516 19.4251 11.1128C19.5431 11.6739 19.5214 12.2554 19.362 12.8062C19.2025 13.357 18.9102 13.8602 18.5107 14.2716C18.388 14.3978 18.2707 14.5165 18.1587 14.6276C17.8886 14.8863 17.6344 15.161 17.3973 15.4502C17.104 15.8262 17 16.1022 17 16.3329V17.3329C17 17.5981 16.8946 17.8525 16.7071 18.04C16.5196 18.2275 16.2652 18.3329 16 18.3329C15.7348 18.3329 15.4804 18.2275 15.2929 18.04C15.1054 17.8525 15 17.5981 15 17.3329V16.3329C15 15.4596 15.4067 14.7516 15.8187 14.2222C16.124 13.8302 16.5067 13.4489 16.8187 13.1369C16.9129 13.0436 16.9987 12.9573 17.076 12.8782C17.2815 12.6668 17.4201 12.3994 17.4745 12.1096C17.5289 11.8198 17.4967 11.5204 17.3819 11.2488C17.267 10.9773 17.0747 10.7455 16.829 10.5826C16.5832 10.4197 16.2949 10.3329 16 10.3329ZM16 22.6662C16.3536 22.6662 16.6928 22.5258 16.9428 22.2757C17.1929 22.0257 17.3333 21.6865 17.3333 21.3329C17.3333 20.9793 17.1929 20.6401 16.9428 20.3901C16.6928 20.14 16.3536 19.9996 16 19.9996C15.6464 19.9996 15.3072 20.14 15.0572 20.3901C14.8071 20.6401 14.6667 20.9793 14.6667 21.3329C14.6667 21.6865 14.8071 22.0257 15.0572 22.2757C15.3072 22.5258 15.6464 22.6662 16 22.6662Z" fill="white"/>
</svg>
