<svg width="32" height="32" viewBox="0 0 32 32" fill="none" xmlns="http://www.w3.org/2000/svg">
<path d="M16 13.3332C21.8906 13.3332 26.6666 10.9465 26.6666 7.99984C26.6666 5.05317 21.8906 2.6665 16 2.6665C10.1093 2.6665 5.33331 5.05317 5.33331 7.99984C5.33331 10.9465 10.1093 13.3332 16 13.3332Z" fill="white"/>
<path opacity="0.5" d="M5.33331 16V24C5.33331 26.9467 10.1093 29.3333 16 29.3333C21.8906 29.3333 26.6666 26.9467 26.6666 24V16C26.6666 18.9467 21.8906 21.3333 16 21.3333C10.1093 21.3333 5.33331 18.9467 5.33331 16Z" fill="white"/>
<path opacity="0.7" d="M5.33331 8V16C5.33331 18.9467 10.1093 21.3333 16 21.3333C21.8906 21.3333 26.6666 18.9467 26.6666 16V8C26.6666 10.9467 21.8906 13.3333 16 13.3333C10.1093 13.3333 5.33331 10.9467 5.33331 8Z" fill="white"/>
</svg>
