<svg width="32" height="32" viewBox="0 0 32 32" fill="none" xmlns="http://www.w3.org/2000/svg">
<g id="Ubi">
<path id="Vector" opacity="0.5" d="M16 2.66663C10.1093 2.66663 5.33331 8.00396 5.33331 14C5.33331 19.9493 8.73731 26.416 14.0493 28.8986C14.6599 29.1845 15.3258 29.3327 16 29.3327C16.6742 29.3327 17.3401 29.1845 17.9506 28.8986C23.2626 26.416 26.6666 19.9493 26.6666 14C26.6666 8.00396 21.8906 2.66663 16 2.66663Z" fill="#151515"/>
<path id="Vector_2" d="M16 16.6667C16.8841 16.6667 17.7319 16.3155 18.357 15.6904C18.9822 15.0652 19.3334 14.2174 19.3334 13.3333C19.3334 12.4493 18.9822 11.6014 18.357 10.9763C17.7319 10.3512 16.8841 10 16 10C15.116 10 14.2681 10.3512 13.643 10.9763C13.0179 11.6014 12.6667 12.4493 12.6667 13.3333C12.6667 14.2174 13.0179 15.0652 13.643 15.6904C14.2681 16.3155 15.116 16.6667 16 16.6667Z" fill="#151515"/>
</g>
</svg>
