<svg width="32" height="32" viewBox="0 0 32 32" fill="none" xmlns="http://www.w3.org/2000/svg">
<path opacity="0.5" fill-rule="evenodd" clip-rule="evenodd" d="M18.6667 29.3333H13.3334C8.30535 29.3333 5.79069 29.3333 4.22935 27.7706C2.66669 26.2093 2.66669 23.6946 2.66669 18.6666V13.3333C2.66669 8.30529 2.66669 5.79063 4.22935 4.22929C5.79069 2.66663 8.31869 2.66663 13.3734 2.66663C14.1814 2.66663 14.828 2.66663 15.3734 2.68929C15.356 2.79596 15.3467 2.90396 15.3467 3.01463L15.3334 6.79329C15.3334 8.25596 15.3334 9.54929 15.4734 10.5906C15.6254 11.72 15.9734 12.8493 16.896 13.772C17.816 14.692 18.9467 15.0413 20.076 15.1933C21.1174 15.3333 22.4107 15.3333 23.8734 15.3333H29.276C29.3334 16.0453 29.3334 16.92 29.3334 18.084V18.6666C29.3334 23.6946 29.3334 26.2093 27.7707 27.7706C26.2094 29.3333 23.6947 29.3333 18.6667 29.3333Z" fill="#151515"/>
<path d="M8 18.3333C7.73478 18.3333 7.48043 18.4387 7.29289 18.6262C7.10536 18.8138 7 19.0681 7 19.3333C7 19.5986 7.10536 19.8529 7.29289 20.0404C7.48043 20.228 7.73478 20.3333 8 20.3333H18.6667C18.9319 20.3333 19.1862 20.228 19.3738 20.0404C19.5613 19.8529 19.6667 19.5986 19.6667 19.3333C19.6667 19.0681 19.5613 18.8138 19.3738 18.6262C19.1862 18.4387 18.9319 18.3333 18.6667 18.3333H8ZM8 23C7.73478 23 7.48043 23.1054 7.29289 23.2929C7.10536 23.4804 7 23.7348 7 24C7 24.2652 7.10536 24.5196 7.29289 24.7071C7.48043 24.8947 7.73478 25 8 25H15.3333C15.5985 25 15.8529 24.8947 16.0404 24.7071C16.228 24.5196 16.3333 24.2652 16.3333 24C16.3333 23.7348 16.228 23.4804 16.0404 23.2929C15.8529 23.1054 15.5985 23 15.3333 23H8ZM15.3467 3.01334L15.3333 6.79334C15.3333 8.25601 15.3333 9.54801 15.4733 10.5907C15.6253 11.72 15.9733 12.8493 16.896 13.7707C17.816 14.692 18.9467 15.0413 20.076 15.1933C21.1173 15.3333 22.4107 15.3333 23.8733 15.3333H29.276C29.2933 15.54 29.3053 15.7613 29.3133 16H29.3333C29.3333 15.6427 29.3333 15.464 29.32 15.2533C29.2173 13.9863 28.7762 12.7702 28.0427 11.732C27.9173 11.5613 27.832 11.46 27.6627 11.256C26.6053 9.99201 25.2133 8.41601 24 7.33334C22.92 6.36801 21.4387 5.31334 20.1467 4.45201C19.0373 3.71067 18.4827 3.34001 17.7213 3.06534C17.4999 2.98609 17.2747 2.91757 17.0467 2.86001C16.5347 2.73334 16.036 2.68934 15.3333 2.67334L15.3467 3.01334Z" fill="#151515"/>
</svg>
