<svg width="32" height="32" viewBox="0 0 32 32" fill="none" xmlns="http://www.w3.org/2000/svg">
<path opacity="0.5" d="M29.3333 16C29.3333 23.364 23.364 29.3333 16 29.3333C8.63596 29.3333 2.66663 23.364 2.66663 16C2.66663 8.636 8.63596 2.66666 16 2.66666C23.364 2.66666 29.3333 8.636 29.3333 16Z" fill="#151515"/>
<path d="M16 23.6667C16.2652 23.6667 16.5195 23.5613 16.7071 23.3738C16.8946 23.1862 17 22.9319 17 22.6667V14.6667C17 14.4015 16.8946 14.1471 16.7071 13.9596C16.5195 13.772 16.2652 13.6667 16 13.6667C15.7347 13.6667 15.4804 13.772 15.2929 13.9596C15.1053 14.1471 15 14.4015 15 14.6667V22.6667C15 23.2187 15.448 23.6667 16 23.6667ZM16 9.33334C16.3536 9.33334 16.6927 9.47381 16.9428 9.72386C17.1928 9.97391 17.3333 10.313 17.3333 10.6667C17.3333 11.0203 17.1928 11.3594 16.9428 11.6095C16.6927 11.8595 16.3536 12 16 12C15.6463 12 15.3072 11.8595 15.0572 11.6095C14.8071 11.3594 14.6666 11.0203 14.6666 10.6667C14.6666 10.313 14.8071 9.97391 15.0572 9.72386C15.3072 9.47381 15.6463 9.33334 16 9.33334Z" fill="#151515"/>
</svg>
