<svg width="154" height="48" viewBox="0 0 154 48" fill="none" xmlns="http://www.w3.org/2000/svg">
<g clip-path="url(#clip0_214_242)">
<path d="M38.2175 7.07722C42.1275 10.2891 45.3431 14.3748 47.6836 18.8569L48.0075 19.0507L59.3812 1.13586C60.1048 0.531505 61.2433 0.885225 62.0712 0.89752C64.9828 0.941026 67.9077 0.870093 70.8032 0.803889C70.9168 0.801051 71.0002 0.783082 71.0769 0.891846C71.1906 1.05168 70.143 4.15004 70.0104 4.65603C66.897 16.6002 66.5475 28.8471 69.2536 40.9199C69.7812 43.2711 70.5095 45.5703 71.1195 47.8988C67.8565 46.2616 64.8833 43.5463 62.8024 40.552C58.2427 33.9893 57.4565 25.6428 60.3217 18.2024L47.586 37.5C45.6197 34.413 43.7178 31.2787 41.7401 28.1964C40.9871 27.0227 38.3407 23.5167 38.0878 22.4801C37.9609 21.959 37.9552 21.3007 37.8302 20.7512C37.0184 17.2017 34.2044 13.3042 30.9489 11.6387C30.4555 11.3862 29.3331 11.0693 29.0006 10.7941C28.8434 10.6636 28.6246 10.2446 28.4522 10.0659C24.7989 6.27993 20.7602 3.15036 15.9978 0.845503C15.994 0.61095 19.3499 0.0633464 19.7335 0.0378105C26.2898 -0.402921 33.2667 3.01038 38.2175 7.07722Z" fill="#02308E"/>
<path d="M16.7167 6.32061C17.7709 7.04602 18.8497 7.83196 19.8717 8.6075C20.422 9.02553 20.9629 9.47288 21.4857 9.92591C21.4895 10.0498 19.7041 10.3988 19.4767 10.4716C10.3138 13.3988 6.70979 24.5429 12.2223 32.4174C17.9404 40.5861 30.464 40.3506 35.8818 31.9587C36.2161 31.4404 36.5249 30.6138 36.8451 30.1778C36.9057 30.0955 36.9379 29.9924 37.0667 30.0227L42.6901 38.6519C40.289 41.8534 37.0203 44.4675 33.3273 46.0526C20.6617 51.4899 5.93122 45.1031 1.36205 32.1951C-2.26089 21.9609 1.52781 10.4641 10.5089 4.44703C10.7912 4.25788 11.7942 3.5703 12.0206 3.48991C12.1759 3.43505 12.964 3.9051 13.1809 4.03089C14.3393 4.70334 15.6085 5.55643 16.7157 6.31872L16.7167 6.32061Z" fill="#E12424"/>
<path d="M111.906 38.0268C106.502 43.9909 96.8287 42.7746 92.9832 35.7617C87.8183 26.3427 97.3061 15.6091 107.3 19.291C114.959 22.1132 117.431 31.9285 111.906 38.0268ZM106.599 25.2399C103.574 22.5795 99.5528 24.0596 98.2315 27.6337C97.1422 30.5826 98.1737 34.6949 101.219 36.0502C107.2 38.7135 111.291 29.3664 106.599 25.2399Z" fill="#02308E"/>
<path d="M89.1528 22.6107C89.3734 22.8661 90.6105 24.2857 90.4381 24.5335L85.6425 27.5552C85.4095 27.577 84.8867 26.4033 84.7048 26.1526C82.1001 22.554 77.1473 23.3702 75.2984 27.245C73.4496 31.1198 75.7749 36.49 80.5486 36.3642C82.9374 36.3017 84.4936 34.8651 85.5724 32.8657C85.6776 32.8412 87.1144 33.7699 87.3455 33.9184C88.2472 34.4963 89.4151 35.2094 90.2467 35.8449C90.332 35.9102 90.4504 35.9755 90.4295 36.106C90.404 36.2686 89.4445 37.5644 89.2588 37.78C81.3575 46.9673 66.3211 39.4058 68.9685 27.6394C71.0381 18.4408 82.9203 15.3944 89.1518 22.6107H89.1528Z" fill="#02308E"/>
<path d="M122.172 21.8899C122.575 21.6724 122.849 21.1617 123.153 20.8827C126.125 18.1541 130.959 18.279 134.393 20.0466L131.648 24.9722C131.556 25.0384 130.081 24.366 129.755 24.2969C126.971 23.7058 124.179 24.9221 122.819 27.4066C122.688 27.6459 122.172 28.8537 122.172 29.0305V41.6566H116.016V19.1472H122.172V21.8899Z" fill="#E12424"/>
<path d="M141.779 21.9846C142.784 20.81 143.849 19.8699 145.327 19.3327C147.914 18.3907 150.866 18.7009 153.372 19.7242L154 20.1413L151.252 24.9704C151.174 25.0205 149.871 24.4238 149.587 24.3538C146.592 23.6151 143.535 24.9846 142.235 27.7832C142.168 27.9279 141.779 28.9635 141.779 29.0297V41.6558H135.622V19.1463H141.779V21.9837V21.9846Z" fill="#E12424"/>
<path d="M22.698 17.6605C31.3665 16.6286 30.5813 31.6977 22.5076 30.0927C16.5243 28.9029 16.8397 18.3575 22.698 17.6605Z" fill="#FCEF1E"/>
</g>
<defs>
<clipPath id="clip0_214_242">
<rect width="154" height="48" fill="white"/>
</clipPath>
</defs>
</svg>
